<?xml version="1.0" encoding="UTF-8"?>
<svg xmlns="http://www.w3.org/2000/svg" xmlns:xlink="http://www.w3.org/1999/xlink" width="206px" height="50px" viewBox="0 0 205 50" version="1.1">
<g id="surface1">
<path style=" stroke:none;fill-rule:nonzero;fill:rgb(31.37255%,26.666668%,89.411765%);fill-opacity:1;" d="M 13.609375 1.964844 C 13.75 1.964844 13.890625 1.964844 14.039062 1.964844 C 14.515625 1.964844 14.992188 1.964844 15.464844 1.964844 C 15.808594 1.960938 16.148438 1.960938 16.488281 1.960938 C 17.417969 1.957031 18.34375 1.957031 19.273438 1.957031 C 19.851562 1.957031 20.433594 1.957031 21.011719 1.957031 C 22.617188 1.953125 24.226562 1.953125 25.832031 1.953125 C 25.9375 1.953125 26.039062 1.953125 26.144531 1.953125 C 26.246094 1.953125 26.351562 1.953125 26.457031 1.953125 C 26.664062 1.949219 26.875 1.949219 27.082031 1.949219 C 27.1875 1.949219 27.289062 1.949219 27.398438 1.949219 C 29.074219 1.949219 30.75 1.949219 32.425781 1.945312 C 34.148438 1.941406 35.871094 1.9375 37.59375 1.9375 C 38.558594 1.9375 39.527344 1.9375 40.492188 1.933594 C 41.402344 1.933594 42.3125 1.933594 43.222656 1.933594 C 43.554688 1.933594 43.886719 1.933594 44.222656 1.929688 C 47.214844 1.917969 49.726562 2.226562 51.984375 4.402344 C 52.148438 4.570312 52.148438 4.570312 52.316406 4.738281 C 52.40625 4.828125 52.492188 4.917969 52.582031 5.007812 C 53.746094 6.265625 54.339844 7.890625 54.910156 9.480469 C 55.464844 9.53125 56.019531 9.582031 56.589844 9.632812 C 56.589844 10.035156 56.589844 10.441406 56.589844 10.855469 C 56.367188 10.882812 56.144531 10.90625 55.921875 10.933594 C 55.796875 10.945312 55.671875 10.960938 55.546875 10.976562 C 55.214844 11.007812 55.214844 11.007812 54.910156 11.007812 C 54.90625 11.191406 54.90625 11.375 54.902344 11.5625 C 54.898438 11.71875 54.898438 11.71875 54.894531 11.875 C 54.914062 12.308594 54.984375 12.722656 55.0625 13.148438 C 52.363281 13.351562 52.363281 13.351562 51.539062 12.878906 C 51.246094 12.574219 51.007812 12.289062 50.792969 11.925781 C 50.742188 12.078125 50.691406 12.230469 50.640625 12.386719 C 51.027344 12.914062 51.316406 13.246094 51.859375 13.609375 C 52.195312 13.644531 52.195312 13.644531 52.5625 13.628906 C 52.695312 13.625 52.832031 13.621094 52.96875 13.621094 C 53.109375 13.617188 53.25 13.613281 53.394531 13.609375 C 53.671875 13.601562 53.953125 13.59375 54.230469 13.589844 C 54.351562 13.585938 54.476562 13.582031 54.601562 13.578125 C 54.910156 13.609375 54.910156 13.609375 55.214844 13.914062 C 55.164062 14.015625 55.113281 14.117188 55.0625 14.21875 C 55.050781 14.457031 55.050781 14.691406 55.054688 14.925781 C 55.054688 15.113281 55.054688 15.113281 55.058594 15.304688 C 55.058594 15.402344 55.0625 15.496094 55.0625 15.597656 C 55.316406 15.648438 55.570312 15.699219 55.824219 15.75 C 56.082031 15.800781 56.335938 15.851562 56.589844 15.902344 C 56.589844 16.304688 56.589844 16.710938 56.589844 17.125 C 55.40625 17.277344 55.40625 17.277344 55.0625 17.277344 C 55.058594 17.792969 55.054688 18.308594 55.054688 18.828125 C 55.050781 18.972656 55.050781 19.117188 55.050781 19.265625 C 55.046875 20 55.0625 20.6875 55.214844 21.40625 C 55.71875 21.351562 55.925781 21.3125 56.273438 20.929688 C 56.589844 20.640625 56.589844 20.640625 57.003906 20.648438 C 57.636719 20.835938 58.035156 21.179688 58.515625 21.617188 C 58.605469 21.699219 58.695312 21.78125 58.792969 21.863281 C 58.980469 22.035156 59.167969 22.207031 59.355469 22.375 C 59.628906 22.621094 59.910156 22.859375 60.191406 23.09375 C 60.359375 23.238281 60.527344 23.382812 60.699219 23.527344 C 60.851562 23.65625 61.003906 23.785156 61.160156 23.917969 C 61.46875 24.3125 61.46875 24.3125 61.472656 24.78125 C 61.3125 25.238281 61.171875 25.476562 60.839844 25.820312 C 60.746094 25.925781 60.648438 26.027344 60.550781 26.132812 C 60.449219 26.238281 60.351562 26.34375 60.25 26.453125 C 60.0625 26.664062 59.878906 26.878906 59.695312 27.09375 C 59.289062 27.5625 58.859375 28 58.417969 28.441406 C 56.609375 30.335938 55.183594 32.339844 54.835938 35.007812 C 54.738281 35.40625 54.578125 35.632812 54.300781 35.933594 C 53.8125 36.046875 53.8125 36.046875 53.386719 36.085938 C 53.371094 36.167969 53.355469 36.253906 53.339844 36.339844 C 52.953125 37.886719 51.707031 38.667969 50.429688 39.496094 C 49.519531 40.039062 48.613281 40.40625 47.589844 40.671875 C 47.492188 40.699219 47.394531 40.726562 47.292969 40.753906 C 46.332031 41 45.417969 41.019531 44.433594 41.007812 C 44.265625 41.007812 44.097656 41.003906 43.921875 41.003906 C 43.03125 40.996094 42.144531 40.96875 41.257812 40.914062 C 39.300781 40.796875 37.359375 40.855469 35.40625 40.917969 C 33.835938 40.96875 32.273438 40.976562 30.703125 40.953125 C 30.347656 40.945312 29.992188 40.941406 29.640625 40.9375 C 29.117188 40.929688 28.597656 40.921875 28.074219 40.90625 C 27.589844 40.894531 27.101562 40.886719 26.617188 40.878906 C 26.398438 40.871094 26.398438 40.871094 26.179688 40.859375 C 25.378906 40.859375 24.945312 40.960938 24.332031 41.496094 C 24.148438 41.675781 23.96875 41.859375 23.792969 42.050781 C 23.652344 42.183594 23.511719 42.320312 23.367188 42.460938 C 23.25 42.582031 23.128906 42.707031 23.003906 42.832031 C 22.882812 42.957031 22.761719 43.078125 22.632812 43.207031 C 22.515625 43.328125 22.394531 43.453125 22.269531 43.578125 C 21.855469 44 21.445312 44.40625 20.992188 44.78125 C 20.21875 45.453125 19.507812 46.1875 18.789062 46.917969 C 18.695312 47.015625 18.597656 47.113281 18.5 47.210938 C 18.414062 47.300781 18.328125 47.386719 18.242188 47.476562 C 17.867188 47.832031 17.605469 48.003906 17.09375 48.070312 C 16.625 48.011719 16.625 48.011719 16.296875 47.796875 C 15.863281 47.183594 15.941406 46.601562 15.957031 45.871094 C 15.957031 45.722656 15.957031 45.570312 15.957031 45.417969 C 15.960938 44.945312 15.96875 44.472656 15.976562 44 C 15.980469 43.675781 15.984375 43.355469 15.984375 43.035156 C 15.992188 42.246094 16.003906 41.460938 16.015625 40.671875 C 15.902344 40.675781 15.789062 40.679688 15.675781 40.683594 C 12.382812 40.785156 9.78125 40.597656 7.265625 38.242188 C 6.070312 37.074219 5.207031 35.707031 4.726562 34.097656 C 4.726562 33.894531 4.726562 33.695312 4.726562 33.484375 C 4.628906 33.4375 4.527344 33.386719 4.421875 33.332031 C 4.332031 32.773438 4.308594 32.214844 4.269531 31.652344 C 3.71875 31.601562 3.164062 31.550781 2.59375 31.5 C 2.441406 30.734375 2.441406 30.734375 2.660156 30.378906 C 2.738281 30.296875 2.816406 30.210938 2.898438 30.121094 C 3.25 30.222656 3.601562 30.324219 3.964844 30.429688 C 3.964844 30.480469 3.964844 30.527344 3.964844 30.582031 C 3.664062 30.632812 3.363281 30.683594 3.050781 30.734375 C 3.050781 30.886719 3.050781 31.035156 3.050781 31.191406 C 3.195312 31.1875 3.335938 31.179688 3.484375 31.175781 C 4.019531 31.15625 4.550781 31.144531 5.085938 31.132812 C 5.316406 31.128906 5.546875 31.121094 5.777344 31.113281 C 7.703125 31.035156 7.703125 31.035156 8.28125 31.429688 C 8.503906 31.699219 8.671875 31.960938 8.847656 32.261719 C 8.949219 32.3125 9.046875 32.363281 9.152344 32.414062 C 9.152344 32.515625 9.152344 32.617188 9.152344 32.722656 C 9.253906 32.722656 9.351562 32.722656 9.457031 32.722656 C 9.695312 32.960938 9.695312 32.960938 9.960938 33.285156 C 10.148438 33.507812 10.335938 33.726562 10.523438 33.945312 C 10.640625 34.082031 10.753906 34.21875 10.875 34.359375 C 11.386719 34.796875 11.699219 34.8125 12.363281 34.851562 C 12.9375 34.914062 12.9375 34.914062 13.421875 35.015625 C 13.785156 35.484375 13.785156 35.484375 14.03125 35.933594 C 14.628906 36.167969 15.105469 36.148438 15.691406 35.902344 C 16.042969 35.605469 16.199219 35.460938 16.320312 35.015625 C 16.273438 34.472656 16.1875 34.003906 16.015625 33.484375 C 15.480469 33.257812 14.90625 33.285156 14.335938 33.332031 C 13.847656 33.652344 13.59375 33.914062 13.269531 34.402344 C 12.734375 34.597656 12.289062 34.566406 11.746094 34.402344 C 11.195312 33.9375 10.75 33.394531 10.292969 32.84375 C 9.34375 31.722656 8.46875 30.695312 6.964844 30.457031 C 6.007812 30.394531 5.066406 30.445312 4.117188 30.582031 C 4.195312 30.429688 4.195312 30.429688 4.269531 30.273438 C 4.28125 29.964844 4.285156 29.652344 4.28125 29.339844 C 4.277344 29.171875 4.277344 29.003906 4.277344 28.832031 C 4.273438 28.636719 4.273438 28.636719 4.269531 28.441406 C 4.109375 28.445312 3.949219 28.453125 3.785156 28.460938 C 3.242188 28.441406 2.921875 28.367188 2.441406 28.132812 C 2.441406 28.035156 2.441406 27.933594 2.441406 27.828125 C 2.542969 27.828125 2.640625 27.828125 2.746094 27.828125 C 2.796875 27.675781 2.847656 27.527344 2.898438 27.371094 C 2.949219 27.519531 3 27.671875 3.050781 27.828125 C 3.199219 27.828125 3.199219 27.828125 3.347656 27.828125 C 4.371094 27.832031 5.390625 27.839844 6.414062 27.851562 C 6.796875 27.855469 7.175781 27.859375 7.558594 27.859375 C 8.105469 27.859375 8.65625 27.867188 9.203125 27.875 C 9.460938 27.871094 9.460938 27.871094 9.722656 27.871094 C 9.878906 27.875 10.039062 27.878906 10.203125 27.878906 C 10.34375 27.882812 10.480469 27.882812 10.625 27.882812 C 10.980469 27.980469 10.980469 27.980469 11.242188 28.351562 C 11.339844 28.546875 11.339844 28.546875 11.441406 28.746094 C 11.875 29.179688 12.207031 29.175781 12.8125 29.203125 C 13.359375 28.960938 13.546875 28.789062 13.878906 28.289062 C 13.949219 27.671875 13.9375 27.324219 13.640625 26.777344 C 13.152344 26.347656 12.851562 26.300781 12.203125 26.300781 C 11.484375 26.558594 11.332031 26.667969 10.980469 27.371094 C 8.765625 27.371094 6.550781 27.371094 4.269531 27.371094 C 4.269531 26.765625 4.269531 26.160156 4.269531 25.535156 C 4.21875 25.28125 4.171875 25.03125 4.117188 24.769531 C 4.660156 24.738281 5.199219 24.71875 5.738281 24.703125 C 5.96875 24.691406 5.96875 24.691406 6.199219 24.675781 C 7.328125 24.648438 7.328125 24.648438 7.765625 25.011719 C 8 25.304688 8 25.304688 8.1875 25.601562 C 8.371094 25.867188 8.371094 25.867188 8.691406 25.917969 C 9.0625 25.925781 9.0625 25.925781 9.609375 25.839844 C 9.730469 25.824219 9.855469 25.808594 9.980469 25.792969 C 10.058594 25.757812 10.136719 25.722656 10.21875 25.6875 C 10.425781 25.066406 10.453125 24.5 10.371094 23.851562 C 10.046875 23.332031 9.828125 23.257812 9.238281 23.097656 C 8.625 23.085938 8.398438 23.160156 7.929688 23.546875 C 7.832031 23.75 7.730469 23.949219 7.625 24.160156 C 6.519531 24.160156 5.410156 24.160156 4.269531 24.160156 C 4.285156 22.375 4.296875 20.589844 4.316406 18.804688 C 4.324219 17.972656 4.328125 17.144531 4.335938 16.316406 C 4.339844 15.515625 4.347656 14.714844 4.355469 13.914062 C 4.359375 13.609375 4.359375 13.304688 4.363281 13 C 4.382812 9.628906 4.839844 7.039062 7.214844 4.472656 C 8.980469 2.804688 11.214844 1.964844 13.609375 1.964844 Z M 35.234375 5.199219 C 34.988281 5.6875 35.003906 6.195312 35.082031 6.726562 C 35.355469 7.15625 35.542969 7.417969 35.996094 7.644531 C 36.675781 7.726562 37.199219 7.773438 37.761719 7.359375 C 38.007812 7.058594 38.007812 7.058594 37.980469 6.726562 C 38.667969 6.695312 39.351562 6.675781 40.039062 6.660156 C 40.234375 6.652344 40.425781 6.644531 40.625 6.632812 C 42.242188 6.605469 42.242188 6.605469 42.945312 7.214844 C 43.125 7.40625 43.300781 7.597656 43.472656 7.796875 C 43.621094 7.945312 43.773438 8.089844 43.925781 8.234375 C 44.058594 8.367188 44.191406 8.5 44.328125 8.640625 C 44.464844 8.773438 44.597656 8.90625 44.734375 9.046875 C 45.148438 9.480469 45.148438 9.480469 45.308594 9.753906 C 45.53125 10.105469 45.71875 10.3125 46.0625 10.550781 C 46.839844 10.703125 47.605469 10.675781 48.390625 10.65625 C 48.617188 10.652344 48.84375 10.652344 49.074219 10.652344 C 49.667969 10.644531 50.265625 10.636719 50.863281 10.625 C 51.472656 10.613281 52.085938 10.609375 52.695312 10.601562 C 53.890625 10.589844 55.085938 10.574219 56.285156 10.550781 C 56.234375 10.398438 56.183594 10.246094 56.132812 10.089844 C 55.304688 9.933594 54.527344 9.9375 53.6875 9.96875 C 52.929688 9.996094 52.175781 10.003906 51.417969 10.011719 C 51.023438 10.019531 50.628906 10.035156 50.230469 10.050781 C 46.769531 10.195312 46.769531 10.195312 45.515625 9.199219 C 44.699219 8.433594 44.027344 7.566406 43.351562 6.675781 C 42.8125 5.996094 42.8125 5.996094 42.027344 5.671875 C 41.847656 5.679688 41.667969 5.683594 41.484375 5.691406 C 41.289062 5.695312 41.089844 5.699219 40.890625 5.703125 C 40.683594 5.714844 40.480469 5.722656 40.277344 5.734375 C 40.070312 5.738281 39.859375 5.746094 39.652344 5.75 C 39.144531 5.765625 38.640625 5.785156 38.132812 5.808594 C 38.085938 5.691406 38.042969 5.570312 37.996094 5.445312 C 37.796875 4.96875 37.679688 4.816406 37.21875 4.585938 C 36.320312 4.488281 35.886719 4.523438 35.234375 5.199219 Z M 12.660156 12.078125 C 12.660156 12.535156 12.660156 12.988281 12.660156 13.457031 C 22.574219 13.457031 32.492188 13.457031 42.707031 13.457031 C 42.757812 13 42.808594 12.546875 42.859375 12.078125 C 32.894531 12.078125 22.929688 12.078125 12.660156 12.078125 Z M 46.367188 15.300781 C 46 15.839844 45.910156 16.164062 45.910156 16.820312 C 46.085938 17.308594 46.226562 17.625 46.636719 17.945312 C 47.296875 18.132812 47.84375 18.132812 48.476562 17.851562 C 48.867188 17.578125 48.867188 17.578125 49.113281 16.972656 C 52.585938 16.898438 52.585938 16.898438 56.132812 16.820312 C 56.179688 16.617188 56.230469 16.414062 56.285156 16.207031 C 53.917969 16.207031 51.550781 16.207031 49.113281 16.207031 C 49.015625 15.957031 48.914062 15.703125 48.808594 15.445312 C 48.523438 15.113281 48.308594 15.003906 47.882812 14.929688 C 47.234375 14.890625 46.914062 14.921875 46.367188 15.300781 Z M 12.660156 17.890625 C 12.660156 18.292969 12.660156 18.695312 12.660156 19.113281 C 13.109375 19.261719 13.394531 19.285156 13.863281 19.285156 C 14.089844 19.285156 14.089844 19.285156 14.328125 19.285156 C 14.496094 19.285156 14.664062 19.285156 14.835938 19.285156 C 15.011719 19.285156 15.191406 19.285156 15.371094 19.285156 C 15.960938 19.285156 16.546875 19.28125 17.132812 19.28125 C 17.539062 19.28125 17.945312 19.28125 18.351562 19.28125 C 19.3125 19.28125 20.273438 19.277344 21.234375 19.277344 C 22.328125 19.273438 23.421875 19.273438 24.515625 19.273438 C 26.765625 19.273438 29.019531 19.269531 31.269531 19.265625 C 31.273438 19.066406 31.273438 18.867188 31.277344 18.664062 C 31.28125 18.550781 31.28125 18.441406 31.285156 18.324219 C 31.300781 18.039062 31.300781 18.039062 31.117188 17.890625 C 30.875 17.875 30.636719 17.871094 30.398438 17.871094 C 30.242188 17.871094 30.085938 17.871094 29.925781 17.871094 C 29.753906 17.871094 29.582031 17.871094 29.40625 17.871094 C 29.222656 17.871094 29.042969 17.871094 28.859375 17.871094 C 28.363281 17.871094 27.867188 17.875 27.375 17.875 C 26.855469 17.875 26.339844 17.875 25.824219 17.875 C 24.84375 17.875 23.863281 17.878906 22.886719 17.878906 C 21.769531 17.878906 20.65625 17.882812 19.539062 17.882812 C 17.246094 17.882812 14.953125 17.886719 12.660156 17.890625 Z M 38.929688 22.390625 C 38.308594 23.046875 38.027344 23.71875 37.980469 24.617188 C 38.046875 25.539062 38.398438 26.121094 39.046875 26.757812 C 39.84375 27.328125 40.695312 27.355469 41.640625 27.21875 C 42.363281 26.957031 42.855469 26.554688 43.242188 25.890625 C 43.582031 25.082031 43.65625 24.21875 43.359375 23.386719 C 42.933594 22.570312 42.410156 22.128906 41.554688 21.828125 C 40.566406 21.609375 39.722656 21.75 38.929688 22.390625 Z M 16.835938 22.378906 C 16.167969 23.152344 15.9375 23.867188 15.96875 24.871094 C 16.066406 25.617188 16.339844 26.175781 16.878906 26.699219 C 17.59375 27.222656 18.25 27.324219 19.125 27.28125 C 19.910156 27.15625 20.386719 26.816406 20.945312 26.242188 C 21.464844 25.429688 21.589844 24.734375 21.464844 23.78125 C 21.265625 23.082031 20.847656 22.621094 20.285156 22.171875 C 19.183594 21.5625 17.835938 21.539062 16.835938 22.378906 Z M 54.453125 21.867188 C 53.734375 22.648438 53.035156 23.441406 52.367188 24.265625 C 52.25 24.402344 52.136719 24.542969 52.019531 24.6875 C 51.835938 24.917969 51.652344 25.148438 51.476562 25.382812 C 50.152344 27.085938 47.828125 27.898438 45.910156 28.746094 C 45.902344 28.875 45.890625 29.007812 45.878906 29.140625 C 45.417969 34.617188 45.417969 34.617188 44.492188 37.03125 C 44.257812 37.644531 44.128906 38.050781 44.386719 38.683594 C 44.902344 39.28125 45.203125 39.570312 45.988281 39.667969 C 46.722656 39.660156 47.167969 39.339844 47.769531 38.949219 C 49.007812 38.191406 50.402344 37.710938 51.796875 37.332031 C 52.269531 37.105469 52.402344 36.863281 52.621094 36.390625 C 52.621094 36.289062 52.621094 36.191406 52.621094 36.085938 C 50.65625 36.511719 48.769531 37.160156 47.03125 38.179688 C 46.667969 38.382812 46.300781 38.539062 45.910156 38.683594 C 46.652344 37.714844 47.4375 36.804688 48.273438 35.917969 C 48.902344 35.25 49.457031 34.542969 49.996094 33.800781 C 50.445312 33.382812 50.804688 33.394531 51.402344 33.332031 C 51.808594 33.027344 51.808594 33.027344 52.011719 32.570312 C 52.050781 32.011719 52.050781 32.011719 51.859375 31.5 C 51.429688 31.105469 51.203125 31.039062 50.621094 31.050781 C 50.183594 31.164062 50.183594 31.164062 49.894531 31.429688 C 49.679688 31.820312 49.679688 31.820312 49.769531 32.371094 C 49.78125 33.1875 49.363281 33.582031 48.820312 34.144531 C 48.636719 34.34375 48.453125 34.546875 48.273438 34.746094 C 48.136719 34.890625 48.136719 34.890625 48 35.039062 C 47.640625 35.429688 47.3125 35.835938 46.980469 36.25 C 46.816406 36.445312 46.816406 36.445312 46.652344 36.648438 C 46.480469 36.867188 46.304688 37.085938 46.132812 37.304688 C 45.808594 37.710938 45.652344 37.90625 45.148438 38.074219 C 45.207031 37.933594 45.265625 37.792969 45.328125 37.644531 C 46.398438 34.992188 46.882812 32.21875 46.828125 29.359375 C 47.011719 29.304688 47.199219 29.25 47.390625 29.195312 C 50.242188 28.234375 52.167969 26.300781 53.996094 24.007812 C 54.675781 24.070312 55.066406 24.546875 55.53125 25 C 56.410156 25.835938 57.316406 26.613281 58.265625 27.371094 C 58.46875 27.269531 58.667969 27.167969 58.875 27.0625 C 58.929688 26.578125 58.929688 26.578125 58.535156 26.242188 C 58.378906 26.101562 58.222656 25.960938 58.066406 25.820312 C 57.941406 25.710938 57.941406 25.710938 57.816406 25.597656 C 57.132812 24.988281 56.429688 24.40625 55.714844 23.835938 C 55.136719 23.355469 55.136719 23.355469 54.910156 23.089844 C 54.957031 22.753906 54.957031 22.753906 55.0625 22.476562 C 54.914062 22.476562 54.761719 22.476562 54.605469 22.476562 C 54.53125 22.175781 54.53125 22.175781 54.453125 21.867188 Z M 24.558594 29.511719 C 24.441406 29.929688 24.441406 29.929688 24.558594 30.429688 C 25.492188 31.625 27.175781 32.425781 28.644531 32.683594 C 30.738281 32.917969 32.605469 32.429688 34.320312 31.191406 C 34.671875 30.890625 34.84375 30.683594 35.082031 30.273438 C 35.074219 29.847656 35.074219 29.847656 34.929688 29.511719 C 34.578125 29.390625 34.578125 29.390625 34.167969 29.359375 C 33.855469 29.550781 33.855469 29.550781 33.585938 29.84375 C 32.527344 30.84375 31.359375 31.277344 29.925781 31.394531 C 28.398438 31.34375 26.832031 30.742188 25.757812 29.636719 C 25.488281 29.316406 25.488281 29.316406 25.0625 29.308594 C 24.714844 29.320312 24.714844 29.320312 24.558594 29.511719 Z M 24.558594 29.511719 "/>
<path style=" stroke:none;fill-rule:nonzero;fill:rgb(31.37255%,26.666668%,89.411765%);fill-opacity:1;" d="M 144.597656 8.105469 C 159.574219 8.105469 159.574219 8.105469 162.1875 10.503906 C 163.300781 11.6875 163.808594 13.28125 163.820312 14.890625 C 163.757812 16.398438 163.46875 17.738281 162.417969 18.871094 C 161.582031 19.601562 160.574219 20.085938 159.546875 20.488281 C 159.671875 20.535156 159.800781 20.578125 159.929688 20.625 C 161.921875 21.351562 163.238281 22.199219 164.332031 24.058594 C 165.039062 25.625 165.027344 27.929688 164.484375 29.550781 C 164.3125 29.925781 164.3125 29.925781 164.121094 30.273438 C 164.027344 30.453125 164.027344 30.453125 163.929688 30.636719 C 162.859375 32.445312 161.027344 33.398438 159.050781 33.90625 C 154.484375 34.753906 148.707031 34.25 144.597656 34.25 C 144.597656 25.621094 144.597656 16.992188 144.597656 8.105469 Z M 149.632812 12.230469 C 149.632812 14.503906 149.632812 16.773438 149.632812 19.113281 C 151.058594 19.132812 151.058594 19.132812 152.511719 19.152344 C 152.808594 19.15625 153.105469 19.164062 153.410156 19.167969 C 155.171875 19.1875 156.609375 19.085938 157.960938 17.824219 C 158.554688 17.15625 158.757812 16.417969 158.820312 15.546875 C 158.746094 14.429688 158.226562 13.578125 157.410156 12.84375 C 156.03125 11.921875 154.238281 12.167969 152.664062 12.195312 C 151.164062 12.214844 151.164062 12.214844 149.632812 12.230469 Z M 149.632812 22.628906 C 149.632812 25.101562 149.632812 27.574219 149.632812 30.121094 C 151.160156 30.136719 151.160156 30.136719 152.71875 30.152344 C 153.039062 30.15625 153.355469 30.160156 153.683594 30.164062 C 156.355469 30.21875 156.355469 30.21875 158.722656 29.113281 C 159.421875 28.414062 159.71875 27.714844 159.746094 26.738281 C 159.730469 25.679688 159.496094 24.921875 158.785156 24.125 C 157.382812 22.792969 155.933594 22.601562 154.054688 22.613281 C 153.941406 22.613281 153.828125 22.617188 153.714844 22.617188 C 153.296875 22.617188 152.878906 22.617188 152.464844 22.621094 C 151.0625 22.625 151.0625 22.625 149.632812 22.628906 Z M 149.632812 22.628906 "/>
<path style=" stroke:none;fill-rule:nonzero;fill:rgb(0%,0%,0%);fill-opacity:1;" d="M 70.773438 8.105469 C 85.75 8.105469 85.75 8.105469 88.363281 10.503906 C 89.476562 11.6875 89.984375 13.28125 89.996094 14.890625 C 89.933594 16.398438 89.644531 17.738281 88.59375 18.871094 C 87.757812 19.601562 86.75 20.085938 85.722656 20.488281 C 85.847656 20.535156 85.976562 20.578125 86.105469 20.625 C 88.097656 21.351562 89.414062 22.199219 90.507812 24.058594 C 91.214844 25.625 91.203125 27.929688 90.660156 29.550781 C 90.488281 29.925781 90.488281 29.925781 90.296875 30.273438 C 90.203125 30.453125 90.203125 30.453125 90.105469 30.636719 C 89.035156 32.445312 87.203125 33.398438 85.226562 33.90625 C 80.65625 34.753906 74.882812 34.25 70.773438 34.25 C 70.773438 25.621094 70.773438 16.992188 70.773438 8.105469 Z M 75.808594 12.230469 C 75.808594 14.503906 75.808594 16.773438 75.808594 19.113281 C 77.230469 19.132812 77.230469 19.132812 78.6875 19.152344 C 78.984375 19.15625 79.28125 19.164062 79.585938 19.167969 C 81.34375 19.1875 82.785156 19.085938 84.136719 17.824219 C 84.730469 17.15625 84.933594 16.417969 84.996094 15.546875 C 84.921875 14.429688 84.402344 13.578125 83.585938 12.84375 C 82.207031 11.921875 80.414062 12.167969 78.839844 12.195312 C 77.339844 12.214844 77.339844 12.214844 75.808594 12.230469 Z M 75.808594 22.628906 C 75.808594 25.101562 75.808594 27.574219 75.808594 30.121094 C 77.335938 30.136719 77.335938 30.136719 78.894531 30.152344 C 79.214844 30.15625 79.53125 30.160156 79.859375 30.164062 C 82.53125 30.21875 82.53125 30.21875 84.898438 29.113281 C 85.597656 28.414062 85.894531 27.714844 85.921875 26.738281 C 85.90625 25.679688 85.671875 24.921875 84.960938 24.125 C 83.558594 22.792969 82.109375 22.601562 80.230469 22.613281 C 80.117188 22.613281 80.003906 22.617188 79.890625 22.617188 C 79.472656 22.617188 79.054688 22.617188 78.636719 22.621094 C 77.238281 22.625 77.238281 22.625 75.808594 22.628906 Z M 75.808594 22.628906 "/>
<path style=" stroke:none;fill-rule:nonzero;fill:rgb(0%,0%,0%);fill-opacity:1;" d="M 134.351562 15.453125 C 135.117188 16.105469 135.648438 16.910156 136.210938 17.738281 C 136.257812 16.726562 136.308594 15.71875 136.363281 14.679688 C 137.921875 14.679688 139.480469 14.679688 141.089844 14.679688 C 141.101562 17.382812 141.109375 20.082031 141.113281 22.785156 C 141.117188 24.039062 141.121094 25.296875 141.125 26.550781 C 141.128906 27.644531 141.132812 28.738281 141.132812 29.832031 C 141.132812 30.410156 141.136719 30.992188 141.136719 31.570312 C 141.140625 32.117188 141.140625 32.660156 141.140625 33.207031 C 141.140625 33.5 141.144531 33.792969 141.148438 34.089844 C 141.140625 35.933594 140.765625 37.800781 139.503906 39.21875 C 137.609375 41.007812 135.101562 41.769531 132.546875 41.894531 C 132.394531 41.902344 132.238281 41.914062 132.082031 41.921875 C 129.15625 42 126.355469 41.5 124.160156 39.449219 C 123.503906 38.800781 122.914062 38.050781 122.632812 37.15625 C 122.683594 37.003906 122.734375 36.851562 122.785156 36.695312 C 123.144531 36.558594 123.144531 36.558594 123.613281 36.445312 C 123.78125 36.40625 123.953125 36.363281 124.125 36.324219 C 124.304688 36.28125 124.480469 36.242188 124.664062 36.199219 C 124.839844 36.15625 125.015625 36.113281 125.199219 36.070312 C 126.710938 35.714844 126.710938 35.714844 127.210938 35.933594 C 127.359375 36.175781 127.359375 36.175781 127.515625 36.421875 C 128.089844 37.296875 129.132812 37.695312 130.097656 38.019531 C 131.703125 38.292969 133.3125 38.121094 134.742188 37.328125 C 135.460938 36.742188 135.808594 36.214844 136.054688 35.320312 C 136.097656 34.820312 136.097656 34.820312 136.085938 34.296875 C 136.085938 34.105469 136.085938 33.914062 136.082031 33.71875 C 136.082031 33.523438 136.078125 33.324219 136.074219 33.125 C 136.074219 32.921875 136.074219 32.722656 136.070312 32.515625 C 136.066406 32.023438 136.0625 31.53125 136.054688 31.039062 C 135.964844 31.144531 135.871094 31.25 135.777344 31.359375 C 135.65625 31.496094 135.535156 31.632812 135.410156 31.777344 C 135.230469 31.980469 135.230469 31.980469 135.042969 32.191406 C 133.800781 33.492188 132.164062 33.921875 130.414062 33.984375 C 128.476562 33.953125 126.855469 33.457031 125.226562 32.414062 C 125.132812 32.355469 125.039062 32.296875 124.941406 32.234375 C 123.269531 31 122.339844 28.757812 122.023438 26.757812 C 122.007812 26.65625 121.988281 26.550781 121.972656 26.441406 C 121.539062 23.234375 122.007812 19.875 123.960938 17.25 C 125.101562 15.855469 126.835938 14.707031 128.644531 14.40625 C 130.660156 14.238281 132.628906 14.230469 134.351562 15.453125 Z M 128.296875 19.6875 C 126.984375 21.339844 126.765625 23.332031 126.90625 25.382812 C 127.128906 27.066406 127.710938 28.414062 129.066406 29.476562 C 130.242188 30.261719 131.566406 30.289062 132.9375 30.054688 C 133.984375 29.765625 134.796875 29.140625 135.375 28.222656 C 136.425781 26.199219 136.574219 23.710938 135.972656 21.511719 C 135.460938 20.136719 134.628906 19.144531 133.3125 18.5 C 131.511719 17.902344 129.59375 18.316406 128.296875 19.6875 Z M 128.296875 19.6875 "/>
<path style=" stroke:none;fill-rule:nonzero;fill:rgb(31.37255%,26.666668%,89.411765%);fill-opacity:1;" d="M 182.386719 16.222656 C 184.441406 18.003906 185.644531 20.332031 185.914062 23.050781 C 186.089844 26.207031 185.582031 29.195312 183.519531 31.683594 C 182.332031 32.953125 180.878906 33.765625 179.222656 34.25 C 179.109375 34.285156 179 34.320312 178.886719 34.355469 C 176.25 35.027344 173.191406 34.609375 170.8125 33.3125 C 168.542969 31.828125 167.183594 29.699219 166.613281 27.042969 C 166.109375 24.1875 166.335938 21.007812 167.914062 18.511719 C 168.210938 18.085938 168.523438 17.679688 168.851562 17.277344 C 168.929688 17.179688 169.007812 17.082031 169.089844 16.976562 C 172.25 13.441406 178.789062 13.460938 182.386719 16.222656 Z M 172.773438 19.671875 C 172.308594 20.304688 172.011719 20.976562 171.75 21.710938 C 171.710938 21.816406 171.671875 21.921875 171.632812 22.027344 C 171.0625 24.046875 171.304688 26.5625 172.246094 28.410156 C 172.941406 29.554688 173.691406 30.226562 174.976562 30.632812 C 176.277344 30.9375 177.433594 30.746094 178.613281 30.121094 C 179.648438 29.371094 180.171875 28.40625 180.59375 27.21875 C 180.632812 27.113281 180.671875 27.007812 180.710938 26.902344 C 181.28125 24.882812 181.039062 22.367188 180.097656 20.519531 C 179.433594 19.417969 178.597656 18.625 177.355469 18.242188 C 175.578125 18.042969 174.023438 18.289062 172.773438 19.671875 Z M 172.773438 19.671875 "/>
<path style=" stroke:none;fill-rule:nonzero;fill:rgb(0%,0%,0%);fill-opacity:1;" d="M 116.800781 16.222656 C 118.851562 18.003906 120.058594 20.332031 120.328125 23.050781 C 120.503906 26.207031 119.996094 29.195312 117.929688 31.683594 C 116.742188 32.953125 115.289062 33.765625 113.632812 34.25 C 113.523438 34.285156 113.410156 34.320312 113.296875 34.355469 C 110.660156 35.027344 107.601562 34.609375 105.226562 33.3125 C 102.953125 31.828125 101.59375 29.699219 101.023438 27.042969 C 100.519531 24.1875 100.75 21.007812 102.324219 18.511719 C 102.625 18.085938 102.933594 17.679688 103.261719 17.277344 C 103.34375 17.179688 103.421875 17.082031 103.503906 16.976562 C 106.664062 13.441406 113.199219 13.460938 116.800781 16.222656 Z M 107.183594 19.671875 C 106.722656 20.304688 106.421875 20.976562 106.160156 21.710938 C 106.125 21.816406 106.085938 21.921875 106.046875 22.027344 C 105.476562 24.046875 105.71875 26.5625 106.65625 28.410156 C 107.355469 29.554688 108.101562 30.226562 109.390625 30.632812 C 110.6875 30.9375 111.84375 30.746094 113.023438 30.121094 C 114.058594 29.371094 114.582031 28.40625 115.007812 27.21875 C 115.046875 27.113281 115.082031 27.007812 115.121094 26.902344 C 115.691406 24.882812 115.449219 22.367188 114.511719 20.519531 C 113.847656 19.417969 113.011719 18.625 111.765625 18.242188 C 109.988281 18.042969 108.4375 18.289062 107.183594 19.671875 Z M 107.183594 19.671875 "/>
<path style=" stroke:none;fill-rule:nonzero;fill:rgb(31.37255%,26.666668%,89.411765%);fill-opacity:1;" d="M 189.746094 9.9375 C 191.359375 9.9375 192.96875 9.9375 194.628906 9.9375 C 194.628906 11.503906 194.628906 13.066406 194.628906 14.679688 C 195.9375 14.679688 197.246094 14.679688 198.59375 14.679688 C 198.59375 15.890625 198.59375 17.101562 198.59375 18.347656 C 197.285156 18.347656 195.976562 18.347656 194.628906 18.347656 C 194.636719 19.75 194.648438 21.152344 194.664062 22.554688 C 194.671875 23.207031 194.675781 23.859375 194.679688 24.507812 C 194.683594 25.136719 194.691406 25.765625 194.699219 26.394531 C 194.699219 26.632812 194.703125 26.875 194.703125 27.113281 C 194.707031 27.449219 194.710938 27.785156 194.714844 28.121094 C 194.71875 28.410156 194.71875 28.410156 194.71875 28.699219 C 194.785156 29.246094 194.910156 29.535156 195.238281 29.96875 C 195.847656 30.328125 196.417969 30.308594 197.117188 30.292969 C 197.308594 30.292969 197.5 30.289062 197.695312 30.285156 C 197.839844 30.28125 197.988281 30.277344 198.136719 30.273438 C 198.234375 30.65625 198.332031 31.039062 198.433594 31.421875 C 198.460938 31.527344 198.488281 31.636719 198.515625 31.746094 C 198.703125 32.476562 198.820312 33.195312 198.898438 33.945312 C 197.058594 34.734375 194.613281 34.664062 192.753906 33.984375 C 191.390625 33.347656 190.421875 32.335938 189.875 30.921875 C 189.597656 29.855469 189.671875 28.734375 189.6875 27.636719 C 189.6875 27.367188 189.6875 27.097656 189.691406 26.832031 C 189.691406 26.128906 189.699219 25.425781 189.707031 24.722656 C 189.710938 24.003906 189.714844 23.285156 189.71875 22.566406 C 189.722656 21.160156 189.734375 19.753906 189.746094 18.347656 C 188.789062 18.347656 187.835938 18.347656 186.847656 18.347656 C 186.847656 17.136719 186.847656 15.925781 186.847656 14.679688 C 187.804688 14.679688 188.761719 14.679688 189.746094 14.679688 C 189.746094 13.113281 189.746094 11.550781 189.746094 9.9375 Z M 189.746094 9.9375 "/>
<path style=" stroke:none;fill-rule:nonzero;fill:rgb(0%,0%,0%);fill-opacity:1;" d="M 93.5 8.105469 C 95.113281 8.105469 96.722656 8.105469 98.382812 8.105469 C 98.382812 16.730469 98.382812 25.359375 98.382812 34.25 C 96.769531 34.25 95.160156 34.25 93.5 34.25 C 93.5 25.621094 93.5 16.992188 93.5 8.105469 Z M 93.5 8.105469 "/>
<path style=" stroke:none;fill-rule:nonzero;fill:rgb(31.37255%,26.666668%,89.411765%);fill-opacity:1;" d="M 12.59375 26.785156 C 13.117188 26.910156 13.117188 26.910156 13.421875 27.371094 C 13.394531 27.914062 13.394531 27.914062 13.269531 28.441406 C 12.777344 28.769531 12.625 28.84375 12.050781 28.746094 C 11.6875 28.421875 11.6875 28.421875 11.441406 27.980469 C 11.449219 27.496094 11.449219 27.496094 11.59375 27.0625 C 12.050781 26.757812 12.050781 26.757812 12.59375 26.785156 Z M 12.59375 26.785156 "/>
<path style=" stroke:none;fill-rule:nonzero;fill:rgb(31.37255%,26.666668%,89.411765%);fill-opacity:1;" d="M 9.457031 23.546875 C 9.828125 23.796875 9.828125 23.796875 10.066406 24.160156 C 10.066406 24.703125 10.011719 24.96875 9.648438 25.371094 C 9.304688 25.535156 9.304688 25.535156 8.914062 25.515625 C 8.503906 25.367188 8.324219 25.289062 8.085938 24.921875 C 8.023438 24.441406 8.003906 24.140625 8.253906 23.71875 C 8.683594 23.460938 8.96875 23.476562 9.457031 23.546875 Z M 9.457031 23.546875 "/>
<path style=" stroke:none;fill-rule:nonzero;fill:rgb(31.37255%,26.666668%,89.411765%);fill-opacity:1;" d="M 15.042969 33.640625 C 15.492188 33.828125 15.648438 33.964844 15.863281 34.402344 C 15.828125 34.964844 15.808594 35.226562 15.40625 35.625 C 14.851562 35.699219 14.589844 35.695312 14.128906 35.367188 C 13.878906 35.015625 13.878906 35.015625 13.792969 34.632812 C 13.878906 34.25 13.878906 34.25 14.214844 33.886719 C 14.644531 33.640625 14.644531 33.640625 15.042969 33.640625 Z M 15.042969 33.640625 "/>
<path style=" stroke:none;fill-rule:nonzero;fill:rgb(31.37255%,26.666668%,89.411765%);fill-opacity:1;" d="M 47.847656 15.546875 C 48.199219 15.75 48.199219 15.75 48.503906 16.054688 C 48.5625 16.503906 48.5625 16.503906 48.503906 16.972656 C 48.265625 17.269531 48.265625 17.269531 47.894531 17.429688 C 47.339844 17.421875 47.339844 17.421875 46.828125 17.277344 C 46.527344 16.925781 46.519531 16.734375 46.53125 16.273438 C 46.675781 15.902344 46.675781 15.902344 47.015625 15.605469 C 47.4375 15.445312 47.4375 15.445312 47.847656 15.546875 Z M 47.847656 15.546875 "/>
<path style=" stroke:none;fill-rule:nonzero;fill:rgb(31.37255%,26.666668%,89.411765%);fill-opacity:1;" d="M 37.066406 5.199219 C 37.425781 5.4375 37.507812 5.625 37.664062 6.03125 C 37.675781 6.421875 37.675781 6.421875 37.417969 6.765625 C 36.878906 7.171875 36.878906 7.171875 36.453125 7.1875 C 36.035156 7.035156 36.035156 7.035156 35.691406 6.726562 C 35.617188 6.191406 35.585938 5.835938 35.863281 5.359375 C 36.285156 5.121094 36.589844 5.140625 37.066406 5.199219 Z M 37.066406 5.199219 "/>
</g>
</svg>
