<?xml version="1.0" encoding="UTF-8"?>
<svg version="1.1" xmlns="http://www.w3.org/2000/svg" width="1344" height="327">
<path d="M0 0 C0.93093883 -0.00297112 1.86187765 -0.00594224 2.82102674 -0.0090034 C5.94217126 -0.01767865 9.06327737 -0.01919767 12.18443298 -0.02069092 C14.42183006 -0.02532 16.65922634 -0.03034478 18.8966217 -0.03573608 C24.97751564 -0.04885525 31.05839853 -0.05530436 37.1393044 -0.05974674 C40.94038939 -0.06267885 44.74147138 -0.06678397 48.54255486 -0.07125092 C59.0778147 -0.0833594 69.61307277 -0.09374102 80.14833927 -0.09712601 C80.8222279 -0.09734557 81.49611652 -0.09756514 82.19042602 -0.09779136 C82.8658831 -0.09800964 83.54134017 -0.09822791 84.23726565 -0.09845281 C85.60588523 -0.09889626 86.97450481 -0.09934283 88.34312439 -0.09979248 C89.02199994 -0.10001391 89.70087549 -0.10023534 90.40032303 -0.10046348 C101.38825732 -0.10440728 112.37612513 -0.12184905 123.36403377 -0.145152 C134.65985503 -0.16891342 145.95564417 -0.18107253 157.25149435 -0.18249393 C163.58768545 -0.18354057 169.9237828 -0.1894183 176.25995064 -0.20731354 C182.22468196 -0.2238317 188.18924943 -0.22593146 194.15399551 -0.21717453 C196.337204 -0.21640611 198.52042143 -0.22072103 200.70360756 -0.23063278 C220.34078595 -0.31452113 236.79222948 1.70337059 251.60606384 15.92559814 C252.68500916 17.0219458 252.68500916 17.0219458 253.78575134 18.14044189 C254.36067322 18.71665283 254.93559509 19.29286377 255.52793884 19.88653564 C263.14236172 28.11247953 267.05434418 38.75524232 270.78575134 49.14044189 C274.41575134 49.47044189 278.04575134 49.80044189 281.78575134 50.14044189 C281.78575134 52.78044189 281.78575134 55.42044189 281.78575134 58.14044189 C280.32757337 58.3084624 278.86920294 58.47481332 277.41075134 58.64044189 C276.59864197 58.73325439 275.78653259 58.82606689 274.94981384 58.92169189 C272.78575134 59.14044189 272.78575134 59.14044189 270.78575134 59.14044189 C270.76512634 60.33669189 270.74450134 61.53294189 270.72325134 62.76544189 C270.705849 63.77477783 270.705849 63.77477783 270.68809509 64.80450439 C270.80657885 67.63863592 271.27844783 70.35226984 271.78575134 73.14044189 C254.08153162 74.4556125 254.08153162 74.4556125 248.67637634 71.35919189 C246.76544682 69.37852042 245.19682962 67.49925931 243.78575134 65.14044189 C243.45575134 66.13044189 243.12575134 67.12044189 242.78575134 68.14044189 C245.32365441 71.59480995 247.2172078 73.76141287 250.78575134 76.14044189 C252.97902854 76.38312947 252.97902854 76.38312947 255.38340759 76.26544189 C256.26705994 76.24997314 257.15071228 76.23450439 258.06114197 76.21856689 C258.98088806 76.19278564 259.90063416 76.16700439 260.84825134 76.14044189 C262.67223543 76.08952817 264.49649339 76.04742578 266.32090759 76.01544189 C267.12923035 75.99223877 267.9375531 75.96903564 268.77037048 75.94512939 C270.78575134 76.14044189 270.78575134 76.14044189 272.78575134 78.14044189 C272.45575134 78.80044189 272.12575134 79.46044189 271.78575134 80.14044189 C271.71624593 81.68068186 271.70122777 83.22379177 271.72325134 84.76544189 C271.7367865 85.99134033 271.7367865 85.99134033 271.75059509 87.24200439 C271.76219666 87.86848877 271.77379822 88.49497314 271.78575134 89.14044189 C273.45241801 89.47377523 275.11908468 89.80710856 276.78575134 90.14044189 C278.45241801 90.47377523 280.11908468 90.80710856 281.78575134 91.14044189 C281.78575134 93.78044189 281.78575134 96.42044189 281.78575134 99.14044189 C274.03575134 100.14044189 274.03575134 100.14044189 271.78575134 100.14044189 C271.75652488 103.51542347 271.73887667 106.8903721 271.72325134 110.26544189 C271.71487244 111.21677002 271.70649353 112.16809814 271.69786072 113.14825439 C271.68125526 117.93062677 271.78038079 122.43815759 272.78575134 127.14044189 C276.08013899 126.77439882 277.4427809 126.51660302 279.72325134 124.01544189 C281.78575134 122.14044189 281.78575134 122.14044189 284.50059509 122.18731689 C288.66384599 123.3952042 291.27877354 125.65224827 294.41075134 128.51544189 C295.00960144 129.05056396 295.60845154 129.58568604 296.22544861 130.13702393 C297.46625925 131.24821227 298.70297593 132.36398829 299.93565369 133.48419189 C301.7262188 135.087147 303.55231685 136.63402664 305.39903259 138.17169189 C306.50760272 139.11902704 307.61569788 140.06691834 308.72325134 141.01544189 C309.72227478 141.85848877 310.72129822 142.70153564 311.75059509 143.57012939 C313.78575134 146.14044189 313.78575134 146.14044189 313.79747009 149.21856689 C312.76456416 152.20163113 311.82382758 153.75536672 309.66075134 156.01544189 C309.03168884 156.68962158 308.40262634 157.36380127 307.75450134 158.05841064 C307.10481384 158.74548096 306.45512634 159.43255127 305.78575134 160.14044189 C304.57203006 161.53159278 303.36353914 162.92732715 302.16075134 164.32794189 C299.50102954 167.40932691 296.66809172 170.26677021 293.78575134 173.14044189 C281.93355177 185.53735428 272.56494461 198.64506985 270.30528259 216.08966064 C269.64582571 218.69277991 268.60531223 220.17859307 266.78575134 222.14044189 C263.59825134 222.89044189 263.59825134 222.89044189 260.78575134 223.14044189 C260.68520447 223.68571533 260.58465759 224.23098877 260.48106384 224.79278564 C257.95336138 234.92090852 249.78211394 240.01960559 241.41075134 245.45294189 C235.43785474 248.9874913 229.49442151 251.40306834 222.78575134 253.14044189 C222.14210632 253.31776855 221.4984613 253.49509521 220.83531189 253.67779541 C214.55473794 255.2706385 208.55380884 255.40798195 202.09825134 255.32794189 C200.99159119 255.32222168 199.88493103 255.31650146 198.74473572 255.31060791 C192.90621089 255.26000179 187.0955887 255.08017863 181.26817322 254.72735596 C168.45171379 253.95594829 155.72665613 254.32891958 142.90513611 254.74713135 C132.6175094 255.06560665 122.36652364 255.13881586 112.07481384 254.96466064 C109.75019241 254.93317866 107.42556674 254.90200878 105.10093689 254.87115479 C101.68095323 254.82481436 98.26343067 254.76658614 94.84449768 254.66921997 C91.65667672 254.57896777 88.47063806 254.53176931 85.28184509 254.49200439 C83.86562363 254.43305244 83.86562363 254.43305244 82.42079163 254.37290955 C77.17727841 254.35097674 74.32332711 255.03104578 70.30430603 258.51251221 C69.11035349 259.70099382 67.93528286 260.90894341 66.78575134 262.14044189 C65.86407166 263.02989502 64.94239197 263.91934814 63.99278259 264.83575439 C63.20258728 265.63755127 62.41239197 266.43934814 61.59825134 267.26544189 C60.80032166 268.07239502 60.00239197 268.87934814 59.18028259 269.71075439 C58.39008728 270.51255127 57.59989197 271.31434814 56.78575134 272.14044189 C54.07492552 274.88806625 51.37862995 277.54917657 48.41075134 280.01544189 C43.32986662 284.39416981 38.67345378 289.20252772 33.97764587 293.98565674 C33.35100037 294.62068115 32.72435486 295.25570557 32.07872009 295.90997314 C31.51693054 296.48336426 30.95514099 297.05675537 30.37632751 297.64752197 C27.91595427 299.95683623 26.22112117 301.08486277 22.84825134 301.51544189 C19.78575134 301.14044189 19.78575134 301.14044189 17.61875916 299.74298096 C14.79092233 295.72796489 15.29008671 291.91657102 15.39512634 287.12481689 C15.40078613 286.15385071 15.40644592 285.18288452 15.41227722 284.18249512 C15.43464823 281.0846402 15.48484661 277.98794656 15.53575134 274.89044189 C15.55581538 272.78889611 15.57406631 270.68733218 15.59043884 268.58575439 C15.63451554 263.4368702 15.70354876 258.28885286 15.78575134 253.14044189 C15.04639343 253.16662598 14.30703552 253.19281006 13.54527283 253.2197876 C-8.03622715 253.88292976 -25.07530145 252.65117908 -41.58607483 237.23248291 C-49.42055369 229.59449666 -55.07461406 220.66745202 -58.21424866 210.14044189 C-58.21424866 208.82044189 -58.21424866 207.50044189 -58.21424866 206.14044189 C-58.87424866 205.81044189 -59.53424866 205.48044189 -60.21424866 205.14044189 C-60.81808413 201.48894628 -60.95931781 197.83693914 -61.21424866 194.14044189 C-64.84424866 193.81044189 -68.47424866 193.48044189 -72.21424866 193.14044189 C-73.21424866 188.14044189 -73.21424866 188.14044189 -71.77674866 185.82794189 C-71.26112366 185.27106689 -70.74549866 184.71419189 -70.21424866 184.14044189 C-67.90424866 184.80044189 -65.59424866 185.46044189 -63.21424866 186.14044189 C-63.21424866 186.47044189 -63.21424866 186.80044189 -63.21424866 187.14044189 C-65.19424866 187.47044189 -67.17424866 187.80044189 -69.21424866 188.14044189 C-69.21424866 189.13044189 -69.21424866 190.12044189 -69.21424866 191.14044189 C-68.27629456 191.10378418 -67.33834045 191.06712646 -66.3719635 191.02935791 C-62.87165471 190.90962076 -59.37353795 190.82210917 -55.8719635 190.75592041 C-54.36054531 190.72084258 -52.84936258 190.67316345 -51.33876038 190.61236572 C-38.72273453 190.11753808 -38.72273453 190.11753808 -34.92225647 192.69464111 C-33.45225286 194.44300711 -32.35266545 196.16982991 -31.21424866 198.14044189 C-30.55424866 198.47044189 -29.89424866 198.80044189 -29.21424866 199.14044189 C-29.21424866 199.80044189 -29.21424866 200.46044189 -29.21424866 201.14044189 C-28.55424866 201.14044189 -27.89424866 201.14044189 -27.21424866 201.14044189 C-25.66346741 202.71466064 -25.66346741 202.71466064 -23.90174866 204.82794189 C-22.68690387 206.27756567 -21.45636865 207.71411974 -20.21424866 209.14044189 C-19.45885803 210.03505127 -18.70346741 210.92966064 -17.92518616 211.85137939 C-14.54928393 214.70192508 -12.51265773 214.81208968 -8.15174866 215.07794189 C-4.39002991 215.47637939 -4.39002991 215.47637939 -1.21424866 216.14044189 C1.16075134 219.20294189 1.16075134 219.20294189 2.78575134 222.14044189 C6.69026047 223.68545196 9.82013194 223.53928469 13.66075134 221.95294189 C15.95812728 219.99341536 16.97894522 219.04494393 17.78575134 216.14044189 C17.47407062 212.58728167 16.91317324 209.52270758 15.78575134 206.14044189 C12.28469343 204.65922508 8.5136279 204.81343518 4.78575134 205.14044189 C1.55956401 207.2195404 -0.08117885 208.94083719 -2.21424866 212.14044189 C-5.73592019 213.397751 -8.6574153 213.20785934 -12.21424866 212.14044189 C-15.80843473 209.09293788 -18.73341065 205.54204392 -21.74378967 201.93707275 C-27.95408362 194.61319463 -33.68194426 187.87662023 -43.55799866 186.32403564 C-49.82303387 185.92824695 -56.00357865 186.24542811 -62.21424866 187.14044189 C-61.71924866 186.15044189 -61.71924866 186.15044189 -61.21424866 185.14044189 C-61.14359249 183.09989184 -61.1300289 181.05709932 -61.15174866 179.01544189 C-61.16077209 177.91973877 -61.16979553 176.82403564 -61.17909241 175.69512939 C-61.19649475 174.43055908 -61.19649475 174.43055908 -61.21424866 173.14044189 C-62.26612366 173.18169189 -63.31799866 173.22294189 -64.40174866 173.26544189 C-67.95435039 173.14896315 -70.06291506 172.66836121 -73.21424866 171.14044189 C-73.21424866 170.48044189 -73.21424866 169.82044189 -73.21424866 169.14044189 C-72.55424866 169.14044189 -71.89424866 169.14044189 -71.21424866 169.14044189 C-70.88424866 168.15044189 -70.55424866 167.16044189 -70.21424866 166.14044189 C-69.88424866 167.13044189 -69.55424866 168.12044189 -69.21424866 169.14044189 C-68.24705147 169.14257942 -68.24705147 169.14257942 -67.26031494 169.14476013 C-60.56052386 169.16441778 -53.86164871 169.21860666 -47.1622467 169.29302979 C-44.6606859 169.31625404 -42.15902671 169.33061581 -39.65736389 169.33599854 C-36.06502139 169.34525531 -32.4742361 169.38617725 -28.88221741 169.43341064 C-27.19928841 169.42751167 -27.19928841 169.42751167 -25.48236084 169.42149353 C-24.44150833 169.44113663 -23.40065582 169.46077972 -22.32826233 169.48101807 C-21.41114975 169.4876799 -20.49403717 169.49434174 -19.5491333 169.50120544 C-17.21424866 170.14044189 -17.21424866 170.14044189 -15.5196228 172.55665588 C-14.8734626 173.83562996 -14.8734626 173.83562996 -14.21424866 175.14044189 C-11.36811598 177.98657457 -9.17424522 177.93908614 -5.21424866 178.14044189 C-1.64037263 176.55205255 -0.40335294 175.42409832 1.78575134 172.14044189 C2.23245771 168.12008457 2.1682415 165.84422379 0.22325134 162.26544189 C-2.9955677 159.45929196 -4.96785242 159.14044189 -9.21424866 159.14044189 C-13.92526274 160.829296 -14.92180045 161.55554548 -17.21424866 166.14044189 C-31.73424866 166.14044189 -46.25424866 166.14044189 -61.21424866 166.14044189 C-61.21424866 162.18044189 -61.21424866 158.22044189 -61.21424866 154.14044189 C-61.54424866 152.49044189 -61.87424866 150.84044189 -62.21424866 149.14044189 C-58.67344194 148.93604364 -55.13415859 148.81246307 -51.58924866 148.70294189 C-50.0907135 148.61496338 -50.0907135 148.61496338 -48.56190491 148.52520752 C-41.16753603 148.35381486 -41.16753603 148.35381486 -38.3094635 150.71221924 C-36.76112366 152.63653564 -36.76112366 152.63653564 -35.52967834 154.57574463 C-34.32558366 156.31743861 -34.32558366 156.31743861 -32.23475647 156.64068604 C-29.79270571 156.68612838 -29.79270571 156.68612838 -26.21424866 156.14044189 C-25.40987366 156.03731689 -24.60549866 155.93419189 -23.77674866 155.82794189 C-23.26112366 155.60106689 -22.74549866 155.37419189 -22.21424866 155.14044189 C-20.8623758 151.08482332 -20.67752815 147.38053387 -21.21424866 143.14044189 C-23.33966328 139.73977851 -24.78347916 139.25792448 -28.65174866 138.20294189 C-32.65828017 138.13265187 -34.15779383 138.60795076 -37.21424866 141.14044189 C-37.87424866 142.46044189 -38.53424866 143.78044189 -39.21424866 145.14044189 C-46.47424866 145.14044189 -53.73424866 145.14044189 -61.21424866 145.14044189 C-61.12851796 133.4653848 -61.03464992 121.79046923 -60.92672157 110.11559582 C-60.8769181 104.69364637 -60.83058737 99.27171491 -60.79237366 93.84967041 C-60.75531851 88.61056778 -60.70890526 83.37162177 -60.65618515 78.13265419 C-60.63774816 76.14056476 -60.62260139 74.1484419 -60.61090469 72.1563015 C-60.47695136 50.11740588 -57.48361578 33.16803982 -41.90174866 16.39044189 C-30.33077311 5.47245593 -15.69942201 -0.01566696 0 0 Z M141.78575134 21.14044189 C140.18488507 24.34217443 140.28658045 27.66621248 140.78575134 31.14044189 C142.57939045 33.9504765 143.8045607 35.64984657 146.78575134 37.14044189 C151.22944972 37.66373456 154.65698583 37.96636788 158.34825134 35.26544189 C159.97252113 33.29193858 159.97252113 33.29193858 159.78575134 31.14044189 C164.28507357 30.93588638 168.78319049 30.81237914 173.28575134 30.70294189 C174.55418884 30.64428955 175.82262634 30.58563721 177.12950134 30.52520752 C187.73757218 30.33183123 187.73757218 30.33183123 192.34043884 34.32403564 C193.51687083 35.57032814 194.66777355 36.84145657 195.78575134 38.14044189 C196.76993689 39.09666407 197.7615053 40.04538185 198.76231384 40.98419189 C199.63629822 41.86075439 200.51028259 42.73731689 201.41075134 43.64044189 C202.28989197 44.51700439 203.16903259 45.39356689 204.07481384 46.29669189 C206.78575134 49.14044189 206.78575134 49.14044189 207.82713318 50.92536926 C209.28664722 53.22261844 210.53343388 54.58555933 212.78575134 56.14044189 C217.86137071 57.13816665 222.88498671 56.95617412 228.02793884 56.82403564 C229.52149632 56.8109674 231.01508395 56.80100901 232.50868225 56.79402161 C236.42544007 56.76739078 240.34035861 56.69871713 244.25639343 56.62109375 C248.25811381 56.54927347 252.26013369 56.5174704 256.26231384 56.48223877 C264.10430046 56.4073363 271.94479663 56.28798854 279.78575134 56.14044189 C279.45575134 55.15044189 279.12575134 54.16044189 278.78575134 53.14044189 C273.37526303 52.10559061 268.26068956 52.14265034 262.76382446 52.33638 C257.8078733 52.50707805 252.85173055 52.56218064 247.89341736 52.62652588 C245.29888389 52.67710127 242.70474875 52.75804536 240.11216736 52.8706665 C217.41354904 53.81106888 217.41354904 53.81106888 209.19444275 47.30792236 C203.82802862 42.30716673 199.42657771 36.6256604 195.00921631 30.79586792 C191.48050471 26.34738831 191.48050471 26.34738831 186.32896423 24.23223877 C185.15068054 24.2741333 183.97239685 24.31602783 182.75840759 24.35919189 C181.47256775 24.38497314 180.18672791 24.41075439 178.86192322 24.43731689 C177.52398808 24.50413995 176.18609744 24.57185929 174.84825134 24.64044189 C173.48312156 24.68062613 172.11787782 24.71711831 170.75254822 24.74981689 C167.42735831 24.8438152 164.10803178 24.97510685 160.78575134 25.14044189 C160.48926697 24.35282471 160.19278259 23.56520752 159.88731384 22.75372314 C158.57407834 19.63828148 157.80768387 18.65140816 154.78575134 17.14044189 C148.9065701 16.48719953 146.07479169 16.72143063 141.78575134 21.14044189 Z M-6.21424866 66.14044189 C-6.21424866 69.11044189 -6.21424866 72.08044189 -6.21424866 75.14044189 C58.79575134 75.14044189 123.80575134 75.14044189 190.78575134 75.14044189 C191.11575134 72.17044189 191.44575134 69.20044189 191.78575134 66.14044189 C126.44575134 66.14044189 61.10575134 66.14044189 -6.21424866 66.14044189 Z M214.78575134 87.20294189 C212.37761897 90.73988632 211.78575134 92.86607596 211.78575134 97.14044189 C212.93625173 100.34973245 213.84111832 102.39823023 216.53575134 104.51544189 C220.87830005 105.72170543 224.46491547 105.72748006 228.59825134 103.89044189 C231.15897503 102.09242481 231.15897503 102.09242481 232.78575134 98.14044189 C255.55575134 97.64544189 255.55575134 97.64544189 278.78575134 97.14044189 C279.11575134 95.82044189 279.44575134 94.50044189 279.78575134 93.14044189 C264.27575134 93.14044189 248.76575134 93.14044189 232.78575134 93.14044189 C232.12575134 91.49044189 231.46575134 89.84044189 230.78575134 88.14044189 C228.91614274 85.97169592 227.51306458 85.26438479 224.69981384 84.78497314 C220.44981756 84.52376075 218.36598074 84.74153418 214.78575134 87.20294189 Z M-6.21424866 104.14044189 C-6.21424866 106.78044189 -6.21424866 109.42044189 -6.21424866 112.14044189 C-3.27439386 113.12039349 -1.39740686 113.26392257 1.66421509 113.26069641 C3.17232758 113.26275841 3.17232758 113.26275841 4.71090698 113.26486206 C5.81285904 113.26126678 6.9148111 113.25767151 8.05015564 113.25396729 C9.21126862 113.25411331 10.37238159 113.25425934 11.56867981 113.25440979 C15.41579542 113.25371178 19.26286292 113.24592456 23.10997009 113.23809814 C25.77369265 113.23623357 28.43741252 113.23476067 31.10113525 113.23381042 C37.40154425 113.23070132 43.70193592 113.22249359 50.00233728 113.21246094 C57.17518211 113.20128675 64.34802778 113.19578605 71.52087915 113.1907655 C86.27584542 113.18031064 101.03079808 113.16271933 115.78575134 113.14044189 C115.80637634 111.84106689 115.82700134 110.54169189 115.84825134 109.20294189 C115.85985291 108.47204346 115.87145447 107.74114502 115.88340759 106.98809814 C115.99136318 105.12312048 115.99136318 105.12312048 114.78575134 104.14044189 C113.216875 104.0445299 111.64367342 104.01856193 110.0718689 104.02018738 C109.05238159 104.01881271 108.03289429 104.01743805 106.98251343 104.01602173 C105.85466934 104.019617 104.72682526 104.02321228 103.56480408 104.0269165 C102.38447601 104.02677048 101.20414795 104.02662445 99.98805237 104.026474 C96.74233026 104.02705295 93.49665079 104.03208203 90.25093722 104.03904796 C86.86232102 104.04528227 83.47370406 104.04588535 80.08508301 104.04707336 C73.6641933 104.05018645 67.24332053 104.05839953 60.8224383 104.06842285 C53.5142131 104.0795847 46.2059871 104.08509462 38.8977555 104.09011829 C23.86041133 104.10058216 8.82308303 104.11818117 -6.21424866 104.14044189 Z M166.00450134 133.58184814 C161.95009301 137.86481381 160.10061061 142.24952651 159.78575134 148.14044189 C160.23613188 154.16016228 162.52115553 157.97276871 166.78575134 162.14044189 C172.00108216 165.86567819 177.60053608 166.05287081 183.78575134 165.14044189 C188.53069481 163.43510447 191.74849203 160.81136992 194.28575134 156.45294189 C196.51460894 151.17930562 196.99345199 145.53104532 195.05528259 140.08966064 C192.25488889 134.75176734 188.83926395 131.86097264 183.22325134 129.89044189 C176.73893547 128.47568207 171.20410915 129.37427077 166.00450134 133.58184814 Z M21.16075134 133.49981689 C16.77914121 138.55953336 15.28437284 143.23330417 15.48106384 149.80059814 C16.11438383 154.6641709 17.92140261 158.3331203 21.44590759 161.74981689 C26.12471199 165.17005173 30.44079574 165.84791198 36.16856384 165.56231689 C41.30995429 164.73355545 44.45393119 162.50825719 48.09825134 158.76544189 C51.5214216 153.44051038 52.31921554 148.89624728 51.51231384 142.67559814 C50.19749102 138.08785615 47.46681977 135.08106552 43.78575134 132.14044189 C36.55824883 128.15053809 27.71390756 128.01784968 21.16075134 133.49981689 Z M267.78575134 130.14044189 C263.08630373 135.2620621 258.48836643 140.43735841 254.09825134 145.82794189 C253.34930603 146.74446533 252.60036072 147.66098877 251.82872009 148.60528564 C250.62286347 150.10165457 249.43139814 151.6101659 248.27403259 153.14434814 C239.58466884 164.27370515 224.3581489 169.60322219 211.78575134 175.14044189 C211.7158197 175.99049805 211.64588806 176.8405542 211.57383728 177.71636963 C208.55926798 213.52528491 208.55926798 213.52528491 202.47325134 229.32794189 C200.94563097 233.33491439 200.10654567 235.99181612 201.78575134 240.14044189 C205.17024608 244.04562813 207.14514804 245.93536648 212.28575134 246.57794189 C217.09269956 246.51763968 220.01654683 244.4221025 223.95762634 241.85919189 C232.08526156 236.91974508 241.21961857 233.77886231 250.35997009 231.29278564 C253.47088726 229.81497475 254.34947531 228.2195487 255.78575134 225.14044189 C255.78575134 224.48044189 255.78575134 223.82044189 255.78575134 223.14044189 C242.88813613 225.92515427 230.52659601 230.15997856 219.11778259 236.84356689 C216.73325026 238.16963848 214.33676778 239.17984601 211.78575134 240.14044189 C216.64782484 233.80544613 221.79859293 227.85415314 227.27964783 222.05670166 C231.39603403 217.66974875 235.02468403 213.06391211 238.55528259 208.18731689 C241.51027478 205.47555524 243.86804172 205.52815539 247.78575134 205.14044189 C250.44459735 203.15024072 250.44459735 203.15024072 251.78575134 200.14044189 C252.03986703 196.50218327 252.03986703 196.50218327 250.78575134 193.14044189 C247.96283797 190.55949253 246.48053106 190.1265463 242.66075134 190.20294189 C239.78619239 190.94390112 239.78619239 190.94390112 237.91075134 192.70294189 C236.49050715 195.25553311 236.49050715 195.25553311 237.08653259 198.83575439 C237.15199577 204.18252037 234.41224186 206.76370088 230.84825134 210.45294189 C229.65037514 211.75907763 228.45376757 213.06637794 227.25840759 214.37481689 C226.37112976 215.32904541 226.37112976 215.32904541 225.46592712 216.30255127 C223.13105682 218.85659132 220.95966883 221.51037404 218.78575134 224.20294189 C217.73000916 225.5003833 217.73000916 225.5003833 216.65293884 226.82403564 C215.5051441 228.24797348 214.36315846 229.67664643 213.23106384 231.11309814 C211.10720376 233.77106506 210.09491875 235.03738609 206.78575134 236.14044189 C207.17247009 235.21747314 207.55918884 234.29450439 207.95762634 233.34356689 C214.98091511 215.98300911 218.15115102 197.85702557 217.78575134 179.14044189 C219.00262634 178.78981689 220.21950134 178.43919189 221.47325134 178.07794189 C240.18023031 171.80300249 252.80792541 159.16025536 264.78575134 144.14044189 C269.24653641 144.57039708 271.80068049 147.67562894 274.84825134 150.64044189 C280.60926068 156.11270151 286.55863493 161.19868218 292.78575134 166.14044189 C294.10575134 165.48044189 295.42575134 164.82044189 296.78575134 164.14044189 C297.12807946 160.96000754 297.12807946 160.96000754 294.54747009 158.75762939 C293.5309624 157.83442108 292.50558696 156.92091671 291.47325134 156.01544189 C290.6670636 155.29227783 290.6670636 155.29227783 289.84458923 154.55450439 C285.36399849 150.56767698 280.74896934 146.75863659 276.06309509 143.01544189 C272.25799783 139.88260024 272.25799783 139.88260024 270.78575134 138.14044189 C271.09825134 135.95294189 271.09825134 135.95294189 271.78575134 134.14044189 C270.79575134 134.14044189 269.80575134 134.14044189 268.78575134 134.14044189 C268.29075134 132.16044189 268.29075134 132.16044189 267.78575134 130.14044189 Z M71.78575134 180.14044189 C71.03020814 182.88169839 71.03020814 182.88169839 71.78575134 186.14044189 C77.90836379 193.96475465 88.94449061 199.21754352 98.59043884 200.89434814 C112.3123579 202.43257039 124.53852618 199.21846426 135.78575134 191.14044189 C138.1017084 189.16829702 139.21653814 187.81391624 140.78575134 185.14044189 C140.74506704 182.33559062 140.74506704 182.33559062 139.78575134 180.14044189 C137.47758798 179.34869558 137.47758798 179.34869558 134.78575134 179.14044189 C132.73350123 180.39774489 132.73350123 180.39774489 130.97325134 182.32794189 C124.04603063 188.85226609 116.38487535 191.6814973 106.97325134 192.45294189 C96.95936012 192.11979874 86.71071911 188.19262285 79.66856384 180.96856689 C77.89668699 178.87683448 77.89668699 178.87683448 75.09825134 178.82794189 C72.82718008 178.89699875 72.82718008 178.89699875 71.78575134 180.14044189 Z " fill="#5044E4" transform="translate(89.21424865722656,12.85955810546875)"/>
<path d="M0 0 C98.18136503 0 98.18136503 0 115.3125 15.6875 C122.62426312 23.44240028 125.93419722 33.86862347 126.03125 44.38671875 C125.60471149 54.2504219 123.71772221 63.0150273 116.83203125 70.40625 C111.34250371 75.18178782 104.73120388 78.36605066 98 81 C98.83402344 81.29132813 99.66804688 81.58265625 100.52734375 81.8828125 C113.57246375 86.63464315 122.21720985 92.19369107 129.38671875 104.3515625 C134.01596942 114.58464293 133.93142733 129.67037584 130.375 140.25 C129.25 142.72265625 129.25 142.72265625 128 145 C127.38125 146.17369141 127.38125 146.17369141 126.75 147.37109375 C119.7254828 159.20501052 107.71462168 165.43346887 94.75 168.75 C64.80264641 174.29580622 26.92754914 171 0 171 C0 114.57 0 58.14 0 0 Z M33 27 C33 41.85 33 56.7 33 72 C42.343125 72.12375 42.343125 72.12375 51.875 72.25 C53.82003418 72.28641602 55.76506836 72.32283203 57.76904297 72.36035156 C69.30959616 72.48708989 78.75780646 71.81478504 87.59765625 63.578125 C91.49413388 59.19323096 92.82127788 54.3680681 93.25 48.6875 C92.75467307 41.38142782 89.35848353 35.79501987 84 31 C74.96804438 24.96507339 63.20009707 26.56653653 52.875 26.75 C43.036875 26.87375 43.036875 26.87375 33 27 Z M33 95 C33 111.17 33 127.34 33 144 C43.02375 144.0928125 43.02375 144.0928125 53.25 144.1875 C55.33344727 144.21481201 57.41689453 144.24212402 59.56347656 144.27026367 C77.09184989 144.64101867 77.09184989 144.64101867 92.6015625 137.39453125 C97.1931285 132.81579085 99.14010926 128.24438402 99.3125 121.875 C99.202861 114.94033356 97.66106874 109.98520678 93.01171875 104.76953125 C83.82241533 96.05635754 74.31220852 94.82209557 62.00390625 94.90234375 C61.26394409 94.90335083 60.52398193 94.90435791 59.76159668 94.90539551 C57.02854842 94.91058103 54.29552246 94.92454185 51.5625 94.9375 C42.3740625 94.9684375 42.3740625 94.9684375 33 95 Z " fill="#5044E4" transform="translate(948,53)"/>
<path d="M0 0 C98.18136503 0 98.18136503 0 115.3125 15.6875 C122.62426312 23.44240028 125.93419722 33.86862347 126.03125 44.38671875 C125.60471149 54.2504219 123.71772221 63.0150273 116.83203125 70.40625 C111.34250371 75.18178782 104.73120388 78.36605066 98 81 C98.83402344 81.29132813 99.66804687 81.58265625 100.52734375 81.8828125 C113.57246375 86.63464315 122.21720985 92.19369107 129.38671875 104.3515625 C134.01596942 114.58464293 133.93142733 129.67037584 130.375 140.25 C129.25 142.72265625 129.25 142.72265625 128 145 C127.38125 146.17369141 127.38125 146.17369141 126.75 147.37109375 C119.7254828 159.20501052 107.71462168 165.43346887 94.75 168.75 C64.80264641 174.29580622 26.92754914 171 0 171 C0 114.57 0 58.14 0 0 Z M33 27 C33 41.85 33 56.7 33 72 C42.343125 72.12375 42.343125 72.12375 51.875 72.25 C53.82003418 72.28641602 55.76506836 72.32283203 57.76904297 72.36035156 C69.30959616 72.48708989 78.75780646 71.81478504 87.59765625 63.578125 C91.49413388 59.19323096 92.82127788 54.3680681 93.25 48.6875 C92.75467307 41.38142782 89.35848353 35.79501987 84 31 C74.96804438 24.96507339 63.20009707 26.56653653 52.875 26.75 C43.036875 26.87375 43.036875 26.87375 33 27 Z M33 95 C33 111.17 33 127.34 33 144 C43.02375 144.0928125 43.02375 144.0928125 53.25 144.1875 C55.33344727 144.21481201 57.41689453 144.24212402 59.56347656 144.27026367 C77.09184989 144.64101867 77.09184989 144.64101867 92.6015625 137.39453125 C97.1931285 132.81579085 99.14010926 128.24438402 99.3125 121.875 C99.202861 114.94033356 97.66106874 109.98520678 93.01171875 104.76953125 C83.82241533 96.05635754 74.31220852 94.82209557 62.00390625 94.90234375 C61.26394409 94.90335083 60.52398193 94.90435791 59.76159668 94.90539551 C57.02854842 94.91058103 54.29552246 94.92454185 51.5625 94.9375 C42.3740625 94.9684375 42.3740625 94.9684375 33 95 Z " fill="#000000" transform="translate(464,53)"/>
<path d="M0 0 C5.01807082 4.25606747 8.51021704 9.5218651 12.1875 14.9375 C12.5175 8.3375 12.8475 1.7375 13.1875 -5.0625 C23.4175 -5.0625 33.6475 -5.0625 44.1875 -5.0625 C44.25534178 12.61010982 44.31055424 30.2826077 44.34293652 47.95531178 C44.3583749 56.16190582 44.37940617 64.36841294 44.41381836 72.57495117 C44.44381382 79.73163864 44.46309699 86.88826311 44.46976548 94.0450117 C44.47366064 97.83096316 44.48275084 101.61673448 44.50469017 105.40262794 C44.52521612 108.97392425 44.5313017 112.54496805 44.52682304 116.11631775 C44.528028 118.03580464 44.54408517 119.95526473 44.5607605 121.87467957 C44.51818201 133.9323462 42.04799595 146.1626143 33.78125 155.4375 C21.36629644 167.12216218 4.92633153 172.11550381 -11.8125 172.9375 C-12.823125 172.99035156 -13.83375 173.04320312 -14.875 173.09765625 C-34.04909215 173.60807768 -52.42057484 170.35283024 -66.8125 156.9375 C-71.11614401 152.68950656 -74.97019268 147.78206117 -76.8125 141.9375 C-76.4825 140.9475 -76.1525 139.9575 -75.8125 138.9375 C-73.4675293 138.03027344 -73.4675293 138.03027344 -70.38671875 137.296875 C-69.28005859 137.03132812 -68.17339844 136.76578125 -67.03320312 136.4921875 C-65.86724609 136.22664062 -64.70128906 135.96109375 -63.5 135.6875 C-62.34564453 135.40648437 -61.19128906 135.12546875 -60.00195312 134.8359375 C-50.08292321 132.51017541 -50.08292321 132.51017541 -46.8125 133.9375 C-45.8225 135.5153125 -45.8225 135.5153125 -44.8125 137.125 C-41.04668949 142.85044858 -34.20310694 145.45912119 -27.88671875 147.5859375 C-17.34219286 149.37314528 -6.79337398 148.26020777 2.5625 143.0625 C7.28527371 139.23930223 9.56928516 135.77235038 11.1875 129.9375 C11.45970089 126.65404042 11.45970089 126.65404042 11.3828125 123.2265625 C11.37636719 121.98261719 11.36992188 120.73867187 11.36328125 119.45703125 C11.34652344 118.17183594 11.32976562 116.88664062 11.3125 115.5625 C11.30347656 114.25410156 11.29445313 112.94570312 11.28515625 111.59765625 C11.26165085 108.3774163 11.22879087 105.15755293 11.1875 101.9375 C10.58494385 102.62529541 9.9823877 103.31309082 9.36157227 104.02172852 C8.56291748 104.92334717 7.7642627 105.82496582 6.94140625 106.75390625 C5.75913452 108.09497437 5.75913452 108.09497437 4.55297852 109.46313477 C-3.59382513 117.98494867 -14.33376137 120.79752808 -25.8125 121.1875 C-38.49708823 120.99636237 -49.13932759 117.73783556 -59.8125 110.9375 C-60.42609375 110.54820312 -61.0396875 110.15890625 -61.671875 109.7578125 C-72.63855932 101.68020093 -78.74658335 87.00562392 -80.8125 73.9375 C-80.92335938 73.256875 -81.03421875 72.57625 -81.1484375 71.875 C-84.00205862 50.89702854 -80.92902475 28.92265122 -68.1171875 11.7421875 C-60.63782424 2.64018272 -49.25847497 -4.88267361 -37.40234375 -6.84765625 C-24.18904376 -7.94378219 -11.28853678 -8.00005332 0 0 Z M-39.6875 27.6875 C-48.2838644 38.48857903 -49.73138799 51.5188183 -48.8125 64.9375 C-47.33507216 75.96233967 -43.5337072 84.75894654 -34.640625 91.71875 C-26.92702302 96.86115132 -18.24994867 97.0300945 -9.2578125 95.50390625 C-2.39802912 93.59313614 2.92325296 89.5177688 6.7265625 83.50390625 C13.6063756 70.28742318 14.5886715 53.99968847 10.625 39.625 C7.27667859 30.63740042 1.83676408 24.14931555 -6.8125 19.9375 C-18.60089699 16.00803434 -31.17866667 18.73083333 -39.6875 27.6875 Z " fill="#000000" transform="translate(880.8125,101.0625)"/>
<path d="M0 0 C13.45687143 11.63458676 21.35682552 26.86399432 23.125 44.65625 C24.27745336 65.29236797 20.95667246 84.82664035 7.41015625 101.10546875 C-0.3678208 109.40833995 -9.90078786 114.71017547 -20.75 117.89453125 C-21.47960938 118.12011719 -22.20921875 118.34570312 -22.9609375 118.578125 C-40.24552345 122.97508108 -60.29288547 120.23807176 -75.875 111.76953125 C-90.77564364 102.05172018 -99.67998982 88.11538302 -103.4296875 70.74609375 C-106.72959853 52.0767341 -105.22578721 31.29519693 -94.89453125 14.9609375 C-92.94213971 12.17774105 -90.90380165 9.5241728 -88.75 6.89453125 C-88.22921875 6.24742188 -87.7084375 5.6003125 -87.171875 4.93359375 C-66.4537517 -18.19118024 -23.60141396 -18.06983256 0 0 Z M-63.03125 22.55859375 C-66.07544841 26.69593613 -68.02507132 31.07590458 -69.75 35.89453125 C-69.99621094 36.57773438 -70.24242187 37.2609375 -70.49609375 37.96484375 C-74.24523818 51.15148968 -72.64940925 67.61116354 -66.5 79.70703125 C-61.9233146 87.18138137 -57.01998404 91.5727491 -48.57421875 94.234375 C-40.0624483 96.22398663 -32.4834062 94.9811965 -24.75 90.89453125 C-17.96170401 85.9880248 -14.52942764 79.65892426 -11.75 71.89453125 C-11.50378906 71.21132812 -11.25757813 70.528125 -11.00390625 69.82421875 C-7.25476182 56.63757282 -8.85059075 40.17789896 -15 28.08203125 C-19.35445841 20.87690637 -24.84372057 15.69922774 -33 13.20703125 C-44.65204163 11.88293561 -54.82712148 13.51387829 -63.03125 22.55859375 Z " fill="#5044E4" transform="translate(1195.75,106.10546875)"/>
<path d="M0 0 C13.45687143 11.63458676 21.35682552 26.86399432 23.125 44.65625 C24.27745336 65.29236797 20.95667246 84.82664035 7.41015625 101.10546875 C-0.3678208 109.40833995 -9.90078786 114.71017547 -20.75 117.89453125 C-21.47960937 118.12011719 -22.20921875 118.34570312 -22.9609375 118.578125 C-40.24552345 122.97508108 -60.29288547 120.23807176 -75.875 111.76953125 C-90.77564364 102.05172018 -99.67998982 88.11538302 -103.4296875 70.74609375 C-106.72959853 52.0767341 -105.22578721 31.29519693 -94.89453125 14.9609375 C-92.94213971 12.17774105 -90.90380165 9.5241728 -88.75 6.89453125 C-88.22921875 6.24742188 -87.7084375 5.6003125 -87.171875 4.93359375 C-66.4537517 -18.19118024 -23.60141396 -18.06983256 0 0 Z M-63.03125 22.55859375 C-66.07544841 26.69593613 -68.02507132 31.07590458 -69.75 35.89453125 C-69.99621094 36.57773438 -70.24242187 37.2609375 -70.49609375 37.96484375 C-74.24523818 51.15148968 -72.64940925 67.61116354 -66.5 79.70703125 C-61.9233146 87.18138137 -57.01998404 91.5727491 -48.57421875 94.234375 C-40.0624483 96.22398663 -32.4834062 94.9811965 -24.75 90.89453125 C-17.96170401 85.9880248 -14.52942764 79.65892426 -11.75 71.89453125 C-11.50378906 71.21132812 -11.25757813 70.528125 -11.00390625 69.82421875 C-7.25476182 56.63757282 -8.85059075 40.17789896 -15 28.08203125 C-19.35445841 20.87690637 -24.84372057 15.69922774 -33 13.20703125 C-44.65204163 11.88293561 -54.82712148 13.51387829 -63.03125 22.55859375 Z " fill="#000000" transform="translate(765.75,106.10546875)"/>
<path d="M0 0 C10.56 0 21.12 0 32 0 C32 10.23 32 20.46 32 31 C40.58 31 49.16 31 58 31 C58 38.92 58 46.84 58 55 C49.42 55 40.84 55 32 55 C32.06294682 64.17110827 32.13838087 73.34188149 32.23571491 82.51269054 C32.28041517 86.77121775 32.31967195 91.02964937 32.34643555 95.28833008 C32.37247213 99.39931576 32.41287676 103.50993352 32.46318626 107.6206913 C32.47985264 109.187894 32.49136836 110.75516033 32.49761391 112.32243919 C32.50725781 114.5202821 32.53531854 116.71718429 32.56762695 118.91479492 C32.58428154 120.79010139 32.58428154 120.79010139 32.60127258 122.70329285 C33.0317277 126.2623269 33.85620158 128.15639196 36 131 C40.00900246 133.3450207 43.74589473 133.21035711 48.3125 133.125 C49.56675781 133.10695312 50.82101562 133.08890625 52.11328125 133.0703125 C53.06589844 133.04710937 54.01851562 133.02390625 55 133 C55.65192688 135.49854767 56.29663064 137.9986137 56.9375 140.5 C57.11990234 141.19609375 57.30230469 141.8921875 57.49023438 142.609375 C58.70965566 147.39837494 59.47422365 152.08537471 60 157 C47.9354689 162.17051333 31.90770281 161.70934307 19.703125 157.265625 C10.76653828 153.08144278 4.41333363 146.46558331 0.8380127 137.23931885 C-0.97052969 130.24843975 -0.48074779 122.91410256 -0.390625 115.7421875 C-0.38315189 113.98528695 -0.37746402 112.22837798 -0.37347412 110.47146606 C-0.35830185 105.87805612 -0.31909407 101.28516318 -0.2746582 96.69195557 C-0.23352264 91.99262482 -0.2154243 87.29320942 -0.1953125 82.59375 C-0.15259023 73.39557124 -0.08231075 64.19790977 0 55 C-6.27 55 -12.54 55 -19 55 C-19 47.08 -19 39.16 -19 31 C-12.73 31 -6.46 31 0 31 C0 20.77 0 10.54 0 0 Z " fill="#5044E4" transform="translate(1244,65)"/>
<path d="M0 0 C10.56 0 21.12 0 32 0 C32 56.43 32 112.86 32 171 C21.44 171 10.88 171 0 171 C0 114.57 0 58.14 0 0 Z " fill="#000000" transform="translate(613,53)"/>
<path d="M0 0 C3.4375 0.8125 3.4375 0.8125 5.4375 3.8125 C5.25 7.375 5.25 7.375 4.4375 10.8125 C1.19596834 12.9735211 0.20057099 13.45497553 -3.5625 12.8125 C-5.9375 10.6875 -5.9375 10.6875 -7.5625 7.8125 C-7.5 4.625 -7.5 4.625 -6.5625 1.8125 C-3.5625 -0.1875 -3.5625 -0.1875 0 0 Z " fill="#5044E4" transform="translate(82.5625,175.1875)"/>
<path d="M0 0 C2.4375 1.625 2.4375 1.625 4 4 C4 7.55053329 3.64301849 9.28808667 1.25 11.9375 C-1 13 -1 13 -3.5625 12.875 C-6.24955992 11.91041439 -7.43467041 11.38918727 -9 9 C-9.39365568 5.85075452 -9.52854531 3.88090884 -7.875 1.125 C-5.07553259 -0.55468045 -3.20195936 -0.45742277 0 0 Z " fill="#5044E4" transform="translate(62,154)"/>
<path d="M0 0 C2.94648135 1.24062373 3.97358374 2.11931101 5.375 5 C5.15462372 8.67293796 5.00533454 10.36966546 2.375 13 C-1.25772373 13.47383353 -2.97879564 13.4591452 -6 11.3125 C-7.625 9 -7.625 9 -8.1875 6.5 C-7.625 4 -7.625 4 -5.4375 1.625 C-2.625 0 -2.625 0 0 0 Z " fill="#5044E4" transform="translate(98.625,220)"/>
<path d="M0 0 C2.3125 1.3125 2.3125 1.3125 4.3125 3.3125 C4.6875 6.25 4.6875 6.25 4.3125 9.3125 C2.75 11.25 2.75 11.25 0.3125 12.3125 C-3.3125 12.25 -3.3125 12.25 -6.6875 11.3125 C-8.65654635 9.01527926 -8.69823085 7.75246486 -8.625 4.75 C-7.6875 2.3125 -7.6875 2.3125 -5.4375 0.375 C-2.6875 -0.6875 -2.6875 -0.6875 0 0 Z " fill="#5044E4" transform="translate(313.6875,101.6875)"/>
<path d="M0 0 C2.37941326 1.55892593 2.91673049 2.78349928 3.9375 5.4375 C4 8 4 8 2.3125 10.25 C-1.2096956 12.91544532 -1.2096956 12.91544532 -4 13 C-6.75 12 -6.75 12 -9 10 C-9.50098542 6.49310205 -9.68287817 4.17606796 -7.875 1.0625 C-5.11019567 -0.50422245 -3.11811483 -0.38976435 0 0 Z " fill="#5044E4" transform="translate(243,34)"/>
<path d="" fill="#5044E4" transform="translate(0,0)"/>
<path d="" fill="#5044E4" transform="translate(0,0)"/>
<path d="" fill="#5044E4" transform="translate(0,0)"/>
<path d="" fill="#5044E4" transform="translate(0,0)"/>
</svg>
